# AST/ASF file generated using VICON BodyLanguage
# -----------------------------------------------
:version 1.10
:name VICON
:units
  mass 1.0
  length 0.45
  angle deg
:documentation
   .ast/.asf automatically generated from VICON data using
   VICON BodyBuilder and BodyLanguage model FoxedUp or BRILLIANT.MOD
:root
   order TX TY TZ RX RY RZ
   axis XYZ
   position 0 0 0  
   orientation 0 0 0 
:bonedata
  begin
     id 1 
     name lhipjoint
     direction 0.692814 -0.645514 0.321437 
     length 2.38754 
     axis 0 0 0  XYZ
  end
  begin
     id 2 
     name lfemur
     direction 0.34202 -0.939693 0  
     length 6.41921  
     axis 0 0 20  XYZ
    dof rx ry rz
    limits (-160.0 20.0)
           (-70.0 70.0)
           (-60.0 70.0)
  end
  begin
     id 3 
     name ltibia
     direction 0.34202 -0.939693 0   
     length 6.98247   
     axis 0 0 20   XYZ
    dof rx
    limits (-10.0 170.0)
  end
  begin
     id 4 
     name lfoot
     direction 0.0947186 -0.260237 0.960888   
     length 1.83034   
     axis -90 7.62852e-016 20   XYZ
    dof rx rz
    limits (-45.0 90.0)
           (-70.0 20.0)
  end
  begin
     id 5 
     name ltoes
     direction 1.53538e-011 -4.21952e-011 1   
     length 0.920499   
     axis -90 7.62852e-016 20   XYZ
    dof rx
    limits (-90.0 20.0)
  end
  begin
     id 6 
     name rhipjoint
     direction -0.631686 -0.693949 0.345555   
     length 2.2209  
     axis 0 0 0  XYZ 
  end
  begin
     id 7 
     name rfemur
     direction -0.34202 -0.939693 0   
     length 6.49542   
     axis 0 0 -20   XYZ
    dof rx ry rz
    limits (-160.0 20.0)
           (-70.0 70.0)
           (-70.0 60.0)
  end
  begin
     id 8 
     name rtibia
     direction -0.34202 -0.939693 0   
     length 7.21712   
     axis 0 0 -20   XYZ
    dof rx
    limits (-10.0 170.0)
 end
 begin
     id 9 
     name rfoot
     direction -0.0825378 -0.226771 0.970444   
     length 1.89724  
     axis -90 -7.62852e-016 -20   XYZ
    dof rx rz
    limits (-45.0 90.0)
           (-20.0 70.0)
  end
  begin
     id 10 
     name rtoes
     direction -1.53515e-011 -4.22016e-011 1   
     length 0.955868   
     axis -90 -7.62852e-016 -20   XYZ
    dof rx
    limits (-90.0 20.0)
  end
  begin
     id 11 
     name lowerback
     direction -0.0104711 0.984802 -0.173368   
     length 1.84931   
     axis 0 0 0   XYZ
    dof rx ry rz
    limits (-20.0 45.0)
           (-30.0 30.0)
           (-30.0 30.0)
  end
  begin
     id 12 
     name upperback
     direction -0.00286433 0.999996 -0.000382853   
     length 1.85768   
     axis 0 0 0   XYZ
    dof rx ry rz
    limits (-20.0 45.0)
           (-30.0 30.0)
           (-30.0 30.0)
  end
  begin
     id 13 
     name thorax
     direction 0.00167534 0.996793 0.0800069   
     length 1.92   
     axis 0 0 0   XYZ
    dof rx ry rz
    limits (-20.0 45.0)
           (-30.0 30.0)
           (-30.0 30.0)
  end
  begin
     id 14 
     name lowerneck
     direction -0.0672491 0.995415 0.068018   
     length 1.58923   
     axis 0 0 0   XYZ
    dof rx ry rz
    limits (-20.0 45.0)
           (-30.0 30.0)
           (-30.0 30.0)
  end
  begin
     id 15 
     name upperneck
     direction 0.0958019 0.982476 -0.159884   
     length 1.60189   
     axis 0 0 0   XYZ
    dof rx ry rz
    limits (-20.0 45.0)
           (-30.0 30.0)
           (-30.0 30.0)
  end
  begin
     id 16
     name head
     direction 0.032989 0.997338 -0.0650226  
     length 1.61681  
     axis 0 0 0   XYZ
    dof rx ry rz
    limits (-20.0 45.0)
           (-30.0 30.0)
           (-30.0 30.0)
  end
  begin
     id 17 
     name lclavicle
     direction 0.954279 0.298875 -0.00496069  
     length 2.99449  
     axis 0 0 0   XYZ
    dof ry rz
    limits (-20.0 10.0)
           (0.0 20.0)
  end
  begin
     id 18 
     name lhumerus
     direction 1 -4.48985e-011 -4.2057e-027   
     length 4.79185   
     axis 180 -30 -90   XYZ
    dof rx ry rz
    limits (-60.0 90.0)
           (-90.0 90.0)
           (-90.0 90.0)
  end
  begin
     id 19
     name lradius
     direction 1 -4.48945e-011 1.15441e-028   
     length 2.65553   
     axis 180 -30 -90   XYZ
    dof rx
    limits (-10.0 170.0)
  end
  begin
     id 20
     name lwrist
     direction 1 -4.4899e-011 4.8894e-028   
     length 1.32777   
     axis -2.56392e-016 90 90   XYZ
    dof ry
    limits (-180.0 0.0)
 end
  begin
     id 21 
     name lhand
     direction 1 -4.48908e-011 9.7788e-028   
     length 0.743904   
     axis -6.23971e-016 90 90   XYZ
    dof rx rz
    limits (-90.0 90.0)
           (-45.0 45.0)
  end
  begin
     id 22 
     name lfingers
     direction 1 -4.49068e-011 1.95576e-027   
     length 0.599754   
     axis -1.24794e-015 90 90   XYZ
    dof rx
    limits (0.0 90.0)
  end
  begin
     id 23
     name lthumb
     direction 0.707107 -6.34883e-011 0.707107   
     length 0.861131   
     axis -90 45 2.85299e-015   XYZ
    dof rx rz
    limits (-45.0 45.0)
           (-45.0 45.0)
  end
  begin
     id 24 
     name rclavicle
     direction -0.957921 0.286916 0.00811568   
     length 3.06817  
     axis 0 0 0   XYZ 
    dof ry rz
    limits (-10.0 20.0)
           (-20.0 0.0)
  end
  begin
     id 25 
     name rhumerus
     direction -1 -4.48971e-011 -3.07942e-027  
     length 4.77254   
     axis 180 30 90   XYZ
    dof rx ry rz
    limits (-90.0 60.0)
           (-90.0 90.0)
           (-90.0 90.0)
  end
  begin
     id 26 
     name rradius
     direction -1 -4.48957e-011 -9.6815e-028   
     length 2.75995   
     axis 180 30 90   XYZ
    dof rx
    limits (-10.0 170.0)
  end
  begin
     id 27 
     name rwrist
     direction -1 -4.48979e-011 4.8894e-028   
     length 1.37997   
     axis -2.56392e-016 -90 -90   XYZ
    dof ry
    limits (-180.0 0.0)
  end
  begin
     id 28
     name rhand
     direction -1 -4.48906e-011 9.7788e-028   
     length 0.701619   
     axis -6.23971e-016 -90 -90   XYZ
    dof rx rz
    limits (-90.0 90.0)
           (-45.0 45.0)
  end
  begin
     id 29
     name rfingers
     direction -1 -4.49018e-011 1.95576e-027   
     length 0.565663   
     axis -1.24794e-015 -90 -90   XYZ
    dof rx
    limits (0.0 90.0)
  end
  begin
     id 30
     name rthumb
     direction -0.707107 -6.34881e-011 0.707107   
     length 0.812183   
     axis -90 -45 -2.85299e-015   XYZ
    dof rx rz
    limits (-45.0 45.0)
           (-45.0 45.0)
  end
:hierarchy
  begin
    root lhipjoint rhipjoint lowerback
    lhipjoint lfemur
    lfemur ltibia
    ltibia lfoot
    lfoot ltoes
    rhipjoint rfemur
    rfemur rtibia
    rtibia rfoot
    rfoot rtoes
    lowerback upperback
    upperback thorax
    thorax lowerneck lclavicle rclavicle
    lowerneck upperneck
    upperneck head
    lclavicle lhumerus
    lhumerus lradius
    lradius lwrist
    lwrist lhand lthumb
    lhand lfingers
    rclavicle rhumerus
    rhumerus rradius
    rradius rwrist
    rwrist rhand rthumb
    rhand rfingers
  end

#!OML:ASF F:\VICON\USERDATA\INSTALL\rory3\rory3.ASF
:FULLY-SPECIFIED
:DEGREES
177
root -6.99387 15.6864 5.02944 -171.323 56.3774 -167.904
lowerback 10.3183 0.722781 5.2162
upperback -0.513733 1.72612 1.21021
thorax -6.22848 0.715998 -1.93294
lowerneck -11.6705 -7.52491 -12.6488
upperneck 26.4335 -9.28925 8.28461
head 11.5564 -4.24394 3.95802
rclavicle 7.76875e-014 3.57812e-015
rhumerus -29.8259 4.50807 -90.2063
rradius 34.152
rwrist 4.69374
rhand -17.0686 12.3876
rfingers 7.12502
rthumb 9.16914 -17.3931
lclavicle 7.76875e-014 3.57812e-015
lhumerus -33.9481 12.2472 80.7457
lradius 25.0025
lwrist -2.738
lhand -14.612 12.1224
lfingers 7.12502
lthumb 11.539 41.7848
rfemur 7.50726 5.00272 35.6005
rtibia 16.2504
rfoot -16.6582 -19.2845
rtoes -3.05293
lfemur -29.7353 -6.35595 -12.503
ltibia 31.7342
lfoot -12.1485 15.4373
ltoes -6.12455
178
root -6.89552 15.6896 4.95315 -171.166 56.5652 -167.834
lowerback 10.1568 0.756518 5.19984
upperback -0.511445 1.76239 1.26908
thorax -6.13434 0.738225 -1.86359
lowerneck -11.6601 -7.47699 -12.753
upperneck 26.2091 -9.21113 8.31966
head 11.4658 -4.22158 3.99495
rclavicle 3.17931e-014 7.55382e-015
rhumerus -29.8919 4.83151 -90.3099
rradius 34.2219
rwrist 4.54483
rhand -17.0248 12.628
rfingers 7.12502
rthumb 9.21138 -17.1508
lclavicle 3.17931e-014 7.55382e-015
lhumerus -34.1485 12.7762 80.5749
lradius 24.789
lwrist -3.44047
lhand -14.703 11.8304
lfingers 7.12502
lthumb 11.4512 41.4976
rfemur 8.4174 4.85606 35.5382
rtibia 15.2895
rfoot -16.3378 -19.0315
rtoes -3.51667
lfemur -29.6029 -6.97813 -12.2241
ltibia 30.1227
lfoot -12.6108 16.2971
ltoes -5.9148
179
root -6.79781 15.6952 4.87315 -170.918 56.7383 -167.64
lowerback 10.063 0.790907 5.26851
upperback -0.52589 1.81686 1.34314
thorax -6.09348 0.765545 -1.83034
lowerneck -11.7586 -7.45498 -12.8007
upperneck 26.078 -9.15933 8.30372
head 11.4305 -4.20753 3.99843
rclavicle 2.48232e-014 -1.49089e-014
rhumerus -29.9221 5.00073 -90.3437
rradius 34.1578
rwrist 4.59734
rhand -16.9067 11.9231
rfingers 7.12502
rthumb 9.3254 -17.8506
lclavicle 2.48232e-014 -1.49089e-014
lhumerus -34.3505 13.1297 80.496
lradius 24.6127
lwrist -3.96198
lhand -13.5159 12.3409
lfingers 7.12502
lthumb 12.5958 41.9412
rfemur 9.30337 4.68822 35.5326
rtibia 14.3682
rfoot -15.8493 -18.7669
rtoes -4.42105
lfemur -29.4687 -7.61937 -11.8435
ltibia 28.6252
lfoot -13.0871 16.9744
ltoes -5.30856
180
root -6.69911 15.6988 4.79035 -170.684 56.9421 -167.504
lowerback 9.91571 0.831791 5.34844
upperback -0.559544 1.87374 1.3705
thorax -6.04055 0.792309 -1.85146
lowerneck -11.8357 -7.43776 -12.7771
upperneck 25.98 -9.11836 8.23687
head 11.3982 -4.19651 3.97069
rclavicle -2.29348e-014 1.92821e-014
rhumerus -29.9157 4.96408 -90.3706
rradius 33.9425
rwrist 4.84763
rhand -16.8047 11.5761
rfingers 7.12502
rthumb 9.42382 -18.1932
lclavicle -2.29348e-014 1.92821e-014
lhumerus -34.615 13.6087 80.2582
lradius 24.5421
lwrist -4.91315
lhand -11.8531 13.0237
lfingers 7.12502
lthumb 14.1986 42.5185
rfemur 10.1865 4.52843 35.4611
rtibia 13.4271
rfoot -15.3458 -18.4241
rtoes -5.08539
lfemur -29.3868 -8.23407 -11.4981
ltibia 27.321
lfoot -13.6702 17.5618
ltoes -3.7815
181
root -6.59927 15.7002 4.70672 -170.412 57.2145 -167.33
lowerback 9.74864 0.918619 5.42934
upperback -0.590681 1.98896 1.38506
thorax -5.96894 0.847941 -1.89406
lowerneck -11.8977 -7.41821 -12.6761
upperneck 25.8953 -9.07935 8.12221
head 11.3613 -4.18376 3.91272
rclavicle -9.71809e-014 -3.57812e-015
rhumerus -29.9241 4.91092 -90.4108
rradius 33.7558
rwrist 4.98607
rhand -16.7948 12.3933
rfingers 7.12502
rthumb 9.4333 -17.3756
lclavicle -9.71809e-014 -3.57812e-015
lhumerus -34.9227 14.1485 79.9198
lradius 24.602
lwrist -6.26823
lhand -10.7551 13.6559
lfingers 7.12502
lthumb 15.2564 43.0733
rfemur 11.1557 4.37196 35.377
rtibia 12.3575
rfoot -14.9363 -18.1412
rtoes -5.37985
lfemur -29.3539 -8.73885 -11.1612
ltibia 26.295
lfoot -14.2048 18.123
ltoes -3.0131
182
root -6.49715 15.702 4.62367 -169.924 57.4579 -166.914
lowerback 9.57663 0.992408 5.59575
upperback -0.636409 2.1016 1.45156
thorax -5.90931 0.900706 -1.92924
lowerneck -11.8869 -7.37908 -12.6564
upperneck 25.7382 -9.03127 8.1213
head 11.2916 -4.16411 3.91294
rclavicle 3.26752e-015 -2.00773e-014
rhumerus -30.0246 5.02263 -90.4995
rradius 33.6796
rwrist 4.95402
rhand -16.7758 12.8703
rfingers 7.12502
rthumb 9.45169 -16.8978
lclavicle 3.26752e-015 -2.00773e-014
lhumerus -35.231 14.3687 79.7765
lradius 24.5278
lwrist -6.6924
lhand -10.4216 13.759
lfingers 7.12502
lthumb 15.5777 43.1517
rfemur 12.1072 4.32914 35.4706
rtibia 11.2644
rfoot -14.5589 -17.9743
rtoes -5.51485
lfemur -29.3871 -9.11916 -10.718
ltibia 25.5004
lfoot -14.5546 18.6298
ltoes -3.48008
183
root -6.39359 15.7017 4.53822 -169.164 57.658 -166.194
lowerback 9.42939 1.03144 5.90507
upperback -0.716418 2.19467 1.5939
thorax -5.8997 0.939783 -1.96281
lowerneck -11.8181 -7.3302 -12.7271
upperneck 25.521 -8.96649 8.16544
head 11.1934 -4.14273 3.94768
rclavicle -9.30623e-014 -2.06736e-014
rhumerus -30.1131 5.10752 -90.5262
rradius 33.4455
rwrist 5.0911
rhand -16.6333 12.2371
rfingers 7.12502
rthumb 9.58912 -17.5246
lclavicle -9.30623e-014 -2.06736e-014
lhumerus -35.5047 14.3019 79.8487
lradius 24.1926
lwrist -6.20158
lhand -10.7907 13.3713
lfingers 7.12502
lthumb 15.2221 42.7913
rfemur 13.0206 4.25935 35.714
rtibia 10.2064
rfoot -13.9585 -17.7285
rtoes -6.18004
lfemur -29.4774 -9.39783 -10.1427
ltibia 24.9387
lfoot -14.9025 19.0166
ltoes -3.52113
184
root -6.28942 15.702 4.45072 -168.575 57.939 -165.759
lowerback 9.21458 1.109 6.02323
upperback -0.797786 2.30403 1.66571
thorax -5.85488 0.9915 -1.96319
lowerneck -11.8554 -7.30398 -12.6302
upperneck 25.3568 -8.93613 8.1066
head 11.1259 -4.13001 3.90912
rclavicle -4.22914e-014 -9.74045e-015
rhumerus -30.0999 4.96544 -90.523
rradius 33.0582
rwrist 5.43566
rhand -16.4634 11.7149
rfingers 7.12502
rthumb 9.75305 -18.0392
lclavicle -4.22914e-014 -9.74045e-015
lhumerus -35.734 14.2552 79.9157
lradius 23.6813
lwrist -5.52646
lhand -11.7537 12.7415
lfingers 7.12502
lthumb 14.2943 42.2295
rfemur 13.9188 4.37657 35.7697
rtibia 9.09413
rfoot -13.0873 -17.6241
rtoes -7.71379
lfemur -29.6601 -9.6662 -9.75162
ltibia 24.6189
lfoot -15.5319 19.293
ltoes -2.84483
185
root -6.18481 15.7061 4.3595 -167.986 58.2183 -165.364
lowerback 8.91309 1.19532 6.14236
upperback -0.865853 2.4173 1.74022
thorax -5.74634 1.04758 -1.95828
lowerneck -11.9453 -7.29899 -12.6313
upperneck 25.2477 -8.91536 8.07301
head 11.0983 -4.1266 3.89465
rclavicle -3.10725e-014 -2.34566e-014
rhumerus -30.1658 4.97098 -90.5014
rradius 32.8315
rwrist 5.63146
rhand -16.4023 11.6925
rfingers 7.12502
rthumb 9.81202 -18.0589
lclavicle -3.10725e-014 -2.34566e-014
lhumerus -36.005 14.3602 79.9427
lradius 23.2602
lwrist -5.28422
lhand -12.6285 12.2384
lfingers 7.12502
lthumb 13.4513 41.7841
rfemur 14.7673 4.50472 35.7785
rtibia 8.00104
rfoot -12.1876 -17.477
rtoes -9.25057
lfemur -29.8589 -10.0099 -9.39507
ltibia 24.4831
lfoot -16.2519 19.6022
ltoes -2.53342
